<svg xmlns="http://www.w3.org/2000/svg" xml:space="preserve" style="enable-background:new 0 0 122.88 77.36" viewBox="0 0 122.88 77.36"><path d="m24.94 45.15 5.54 16.29 2.79-9.67-1.37-1.49c-.62-.9-.75-1.68-.41-2.36.74-1.46 2.27-1.19 3.7-1.19 1.5 0 3.35-.28 3.82 1.59.16.63-.04 1.28-.48 1.96l-1.37 1.49 2.79 9.67 5.02-16.29c3.62 3.26 14.33 3.91 18.32 6.13 1.26.7 2.4 1.6 3.31 2.81 1.39 1.83 2.24 4.23 2.47 7.27l.83 12.43c-.2 2.15-1.42 3.39-3.83 3.58H3.83C1.42 77.18.2 75.94 0 73.79l.83-12.43c.23-3.04 1.08-5.44 2.47-7.27.92-1.21 2.05-2.1 3.32-2.81 3.99-2.22 14.7-2.87 18.32-6.13zm49.98-12.58 3.15-.08 2.62-.07c-3.06-9.41-2.03-18.05 5.32-25.39 1.25 4.03 4.05 7.36 8.8 9.82 2.28 1.69 4.48 3.73 6.61 6.08.38-1.55-1.06-3.44-2.81-5.39 1.62.8 3.1 1.92 4.16 4.07 1.22 2.49 1.21 4.6.8 7.3-.19 1.26-.5 2.43-.93 3.51h4.35c4.59-9.83 1.68-24.42-7.71-30.6C96.4-.07 94.33 0 90.95 0c-3.87 0-5.85.12-9.16 2.31-4.89 3.23-7.89 8.82-9.15 16.59-.26 3.87-.43 10.56 2.28 13.67zm11.97 17.89 2.35-8.16-1.15-1.26c-.52-.76-.63-1.42-.34-1.99.62-1.23 1.92-1 3.12-1 1.26 0 2.82-.24 3.22 1.34.13.53-.03 1.08-.4 1.65l-1.15 1.26 2.35 8.16-4 3.16-4-3.16zm21.03-2.83c-1.78-3.57-4.04-6.61-6.67-9.45 4.95 1.92 10.01 3.81 13.76 6.16 2.38 1.49 3.62 2.62 4.58 4.43 2.05 3.85 2.27 7.3 2.58 11.47l.72 7.21H75.23c-.19-4.46.01-7.77-1.47-12.05-.62-1.79-1.47-3.39-2.53-4.8-.71-.94-1.54-1.78-2.46-2.55-.86-.72-1.76-1.32-2.67-1.83-.38-.21-.78-.41-1.2-.59.54-.42 1.16-.84 1.88-1.29 3.75-2.35 8.8-4.24 13.76-6.16-2.63 2.85-4.89 5.88-6.67 9.45l5.16-.13L90.9 57.82l11.87-10.32 5.15.13zM22.11 22c-.5.05-.88.17-1.16.36-.18.12-.31.27-.4.46-.1.21-.14.47-.13.76.03.91.51 2.12 1.45 3.51l.02.02 3.1 4.92c1.24 1.97 2.53 3.97 4.14 5.44 1.53 1.4 3.39 2.35 5.84 2.35 2.66.01 4.6-.98 6.18-2.46 1.65-1.55 2.97-3.68 4.26-5.81l3.48-5.73c.71-1.61.92-2.6.69-3.07-.13-.27-.61-.37-1.39-.33-.54.16-1.17.14-1.91-.06l1.41-5.41c-6.38-.08-10.74-1.19-15.9-4.49-1.7-1.08-2.21-2.32-3.9-2.2-1.28.25-2.36.82-3.21 1.74-.82.88-1.44 2.09-1.84 3.63l1.03 6.4c-.7.15-1.28.12-1.76-.03zm27.71-1.43c.73.22 1.26.64 1.58 1.29.52 1.05.31 2.61-.67 4.84l-.06.12-3.53 5.81c-1.37 2.25-2.75 4.5-4.61 6.24-1.93 1.81-4.32 3.02-7.58 3.01-3.04-.01-5.34-1.17-7.21-2.89-1.81-1.65-3.18-3.77-4.49-5.85l-3.09-4.92c-1.15-1.71-1.74-3.28-1.78-4.57-.02-.62.09-1.18.32-1.68.24-.52.61-.96 1.12-1.3.24-.16.52-.3.82-.41-.19-2.65-.26-5.94-.13-8.7.07-.67.19-1.34.38-2.01.79-2.83 2.78-5.1 5.23-6.67.87-.55 1.81-1.01 2.82-1.37C34.89-.64 42.77.53 46.99 5.1c1.72 1.86 2.8 4.33 3.03 7.59l-.2 7.88z" style="fill-rule:evenodd;clip-rule:evenodd"/></svg>